<svg width="300" height="445" viewBox="0 0 300 445" fill="none" xmlns="http://www.w3.org/2000/svg">
<rect width="300" height="445" fill="white"/>
<path fill-rule="evenodd" clip-rule="evenodd" d="M163.77 151.522C164.687 150.064 165.229 148.376 165.229 146.543C165.229 141.355 161.041 137.168 155.854 137.168C150.666 137.168 146.479 141.355 146.479 146.543C146.479 151.73 150.666 155.918 155.833 155.918C157.666 155.918 159.374 155.376 160.812 154.46L167.312 160.96L170.27 158.001L163.77 151.522ZM161.062 174.668V160.085L165.229 164.251V174.668C165.229 176.96 163.354 178.835 161.062 178.835H131.895C129.604 178.835 127.729 176.96 127.729 174.668V145.501C127.729 143.21 129.604 141.335 131.895 141.335H143.354C142.812 142.626 142.458 144.022 142.354 145.501H131.895V174.668H161.062ZM157.937 170.5L150.562 160.688L144.833 168.063L140.749 163.146L135.02 170.5H157.937ZM150.645 146.543C150.645 149.418 152.979 151.751 155.854 151.751C158.729 151.751 161.062 149.418 161.062 146.543C161.062 143.668 158.729 141.335 155.854 141.335C152.979 141.335 150.645 143.668 150.645 146.543Z" fill="#333333"/>
<path d="M58.8203 232V214.867H60.8125V232H58.8203ZM81.6016 232V223.645C81.6016 222.621 81.3828 221.855 80.9453 221.348C80.5078 220.832 79.8281 220.574 78.9062 220.574C77.6953 220.574 76.8008 220.922 76.2227 221.617C75.6445 222.312 75.3555 223.383 75.3555 224.828V232H73.4102V223.645C73.4102 222.621 73.1914 221.855 72.7539 221.348C72.3164 220.832 71.6328 220.574 70.7031 220.574C69.4844 220.574 68.5898 220.941 68.0195 221.676C67.457 222.402 67.1758 223.598 67.1758 225.262V232H65.2305V219.156H66.8125L67.1289 220.914H67.2227C67.5898 220.289 68.1055 219.801 68.7695 219.449C69.4414 219.098 70.1914 218.922 71.0195 218.922C73.0273 218.922 74.3398 219.648 74.957 221.102H75.0508C75.4336 220.43 75.9883 219.898 76.7148 219.508C77.4414 219.117 78.2695 218.922 79.1992 218.922C80.6523 218.922 81.7383 219.297 82.457 220.047C83.1836 220.789 83.5469 221.98 83.5469 223.621V232H81.6016ZM95.4648 232L95.0781 230.172H94.9844C94.3438 230.977 93.7031 231.523 93.0625 231.812C92.4297 232.094 91.6367 232.234 90.6836 232.234C89.4102 232.234 88.4102 231.906 87.6836 231.25C86.9648 230.594 86.6055 229.66 86.6055 228.449C86.6055 225.855 88.6797 224.496 92.8281 224.371L95.0078 224.301V223.504C95.0078 222.496 94.7891 221.754 94.3516 221.277C93.9219 220.793 93.2305 220.551 92.2773 220.551C91.207 220.551 89.9961 220.879 88.6445 221.535L88.0469 220.047C88.6797 219.703 89.3711 219.434 90.1211 219.238C90.8789 219.043 91.6367 218.945 92.3945 218.945C93.9258 218.945 95.0586 219.285 95.793 219.965C96.5352 220.645 96.9062 221.734 96.9062 223.234V232H95.4648ZM91.0703 230.629C92.2812 230.629 93.2305 230.297 93.918 229.633C94.6133 228.969 94.9609 228.039 94.9609 226.844V225.684L93.0156 225.766C91.4688 225.82 90.3516 226.062 89.6641 226.492C88.9844 226.914 88.6445 227.574 88.6445 228.473C88.6445 229.176 88.8555 229.711 89.2773 230.078C89.707 230.445 90.3047 230.629 91.0703 230.629ZM111.438 219.156V220.387L109.059 220.668C109.277 220.941 109.473 221.301 109.645 221.746C109.816 222.184 109.902 222.68 109.902 223.234C109.902 224.492 109.473 225.496 108.613 226.246C107.754 226.996 106.574 227.371 105.074 227.371C104.691 227.371 104.332 227.34 103.996 227.277C103.168 227.715 102.754 228.266 102.754 228.93C102.754 229.281 102.898 229.543 103.188 229.715C103.477 229.879 103.973 229.961 104.676 229.961H106.949C108.34 229.961 109.406 230.254 110.148 230.84C110.898 231.426 111.273 232.277 111.273 233.395C111.273 234.816 110.703 235.898 109.562 236.641C108.422 237.391 106.758 237.766 104.57 237.766C102.891 237.766 101.594 237.453 100.68 236.828C99.7734 236.203 99.3203 235.32 99.3203 234.18C99.3203 233.398 99.5703 232.723 100.07 232.152C100.57 231.582 101.273 231.195 102.18 230.992C101.852 230.844 101.574 230.613 101.348 230.301C101.129 229.988 101.02 229.625 101.02 229.211C101.02 228.742 101.145 228.332 101.395 227.98C101.645 227.629 102.039 227.289 102.578 226.961C101.914 226.688 101.371 226.223 100.949 225.566C100.535 224.91 100.328 224.16 100.328 223.316C100.328 221.91 100.75 220.828 101.594 220.07C102.438 219.305 103.633 218.922 105.18 218.922C105.852 218.922 106.457 219 106.996 219.156H111.438ZM101.195 234.156C101.195 234.852 101.488 235.379 102.074 235.738C102.66 236.098 103.5 236.277 104.594 236.277C106.227 236.277 107.434 236.031 108.215 235.539C109.004 235.055 109.398 234.395 109.398 233.559C109.398 232.863 109.184 232.379 108.754 232.105C108.324 231.84 107.516 231.707 106.328 231.707H103.996C103.113 231.707 102.426 231.918 101.934 232.34C101.441 232.762 101.195 233.367 101.195 234.156ZM102.25 223.27C102.25 224.168 102.504 224.848 103.012 225.309C103.52 225.77 104.227 226 105.133 226C107.031 226 107.98 225.078 107.98 223.234C107.98 221.305 107.02 220.34 105.098 220.34C104.184 220.34 103.48 220.586 102.988 221.078C102.496 221.57 102.25 222.301 102.25 223.27ZM119.5 232.234C117.602 232.234 116.102 231.656 115 230.5C113.906 229.344 113.359 227.738 113.359 225.684C113.359 223.613 113.867 221.969 114.883 220.75C115.906 219.531 117.277 218.922 118.996 218.922C120.605 218.922 121.879 219.453 122.816 220.516C123.754 221.57 124.223 222.965 124.223 224.699V225.93H115.375C115.414 227.438 115.793 228.582 116.512 229.363C117.238 230.145 118.258 230.535 119.57 230.535C120.953 230.535 122.32 230.246 123.672 229.668V231.402C122.984 231.699 122.332 231.91 121.715 232.035C121.105 232.168 120.367 232.234 119.5 232.234ZM118.973 220.551C117.941 220.551 117.117 220.887 116.5 221.559C115.891 222.23 115.531 223.16 115.422 224.348H122.137C122.137 223.121 121.863 222.184 121.316 221.535C120.77 220.879 119.988 220.551 118.973 220.551ZM142.574 232V223.691C142.574 222.645 142.336 221.863 141.859 221.348C141.383 220.832 140.637 220.574 139.621 220.574C138.277 220.574 137.293 220.938 136.668 221.664C136.043 222.391 135.73 223.59 135.73 225.262V232H133.785V219.156H135.367L135.684 220.914H135.777C136.176 220.281 136.734 219.793 137.453 219.449C138.172 219.098 138.973 218.922 139.855 218.922C141.402 218.922 142.566 219.297 143.348 220.047C144.129 220.789 144.52 221.98 144.52 223.621V232H142.574ZM159.613 225.566C159.613 227.66 159.086 229.297 158.031 230.477C156.977 231.648 155.52 232.234 153.66 232.234C152.512 232.234 151.492 231.965 150.602 231.426C149.711 230.887 149.023 230.113 148.539 229.105C148.055 228.098 147.812 226.918 147.812 225.566C147.812 223.473 148.336 221.844 149.383 220.68C150.43 219.508 151.883 218.922 153.742 218.922C155.539 218.922 156.965 219.52 158.02 220.715C159.082 221.91 159.613 223.527 159.613 225.566ZM149.828 225.566C149.828 227.207 150.156 228.457 150.812 229.316C151.469 230.176 152.434 230.605 153.707 230.605C154.98 230.605 155.945 230.18 156.602 229.328C157.266 228.469 157.598 227.215 157.598 225.566C157.598 223.934 157.266 222.695 156.602 221.852C155.945 221 154.973 220.574 153.684 220.574C152.41 220.574 151.449 220.992 150.801 221.828C150.152 222.664 149.828 223.91 149.828 225.566ZM167.184 230.629C167.527 230.629 167.859 230.605 168.18 230.559C168.5 230.504 168.754 230.449 168.941 230.395V231.883C168.73 231.984 168.418 232.066 168.004 232.129C167.598 232.199 167.23 232.234 166.902 232.234C164.418 232.234 163.176 230.926 163.176 228.309V220.668H161.336V219.73L163.176 218.922L163.996 216.18H165.121V219.156H168.848V220.668H165.121V228.227C165.121 229 165.305 229.594 165.672 230.008C166.039 230.422 166.543 230.629 167.184 230.629ZM183.543 220.668H180.273V232H178.328V220.668H176.031V219.789L178.328 219.086V218.371C178.328 215.215 179.707 213.637 182.465 213.637C183.145 213.637 183.941 213.773 184.855 214.047L184.352 215.605C183.602 215.363 182.961 215.242 182.43 215.242C181.695 215.242 181.152 215.488 180.801 215.98C180.449 216.465 180.273 217.246 180.273 218.324V219.156H183.543V220.668ZM196.973 225.566C196.973 227.66 196.445 229.297 195.391 230.477C194.336 231.648 192.879 232.234 191.02 232.234C189.871 232.234 188.852 231.965 187.961 231.426C187.07 230.887 186.383 230.113 185.898 229.105C185.414 228.098 185.172 226.918 185.172 225.566C185.172 223.473 185.695 221.844 186.742 220.68C187.789 219.508 189.242 218.922 191.102 218.922C192.898 218.922 194.324 219.52 195.379 220.715C196.441 221.91 196.973 223.527 196.973 225.566ZM187.188 225.566C187.188 227.207 187.516 228.457 188.172 229.316C188.828 230.176 189.793 230.605 191.066 230.605C192.34 230.605 193.305 230.18 193.961 229.328C194.625 228.469 194.957 227.215 194.957 225.566C194.957 223.934 194.625 222.695 193.961 221.852C193.305 221 192.332 220.574 191.043 220.574C189.77 220.574 188.809 220.992 188.16 221.828C187.512 222.664 187.188 223.91 187.188 225.566ZM202.223 219.156V227.488C202.223 228.535 202.461 229.316 202.938 229.832C203.414 230.348 204.16 230.605 205.176 230.605C206.52 230.605 207.5 230.238 208.117 229.504C208.742 228.77 209.055 227.57 209.055 225.906V219.156H211V232H209.395L209.113 230.277H209.008C208.609 230.91 208.055 231.395 207.344 231.73C206.641 232.066 205.836 232.234 204.93 232.234C203.367 232.234 202.195 231.863 201.414 231.121C200.641 230.379 200.254 229.191 200.254 227.559V219.156H202.223ZM223.926 232V223.691C223.926 222.645 223.688 221.863 223.211 221.348C222.734 220.832 221.988 220.574 220.973 220.574C219.629 220.574 218.645 220.938 218.02 221.664C217.395 222.391 217.082 223.59 217.082 225.262V232H215.137V219.156H216.719L217.035 220.914H217.129C217.527 220.281 218.086 219.793 218.805 219.449C219.523 219.098 220.324 218.922 221.207 218.922C222.754 218.922 223.918 219.297 224.699 220.047C225.48 220.789 225.871 221.98 225.871 223.621V232H223.926ZM238.621 230.277H238.516C237.617 231.582 236.273 232.234 234.484 232.234C232.805 232.234 231.496 231.66 230.559 230.512C229.629 229.363 229.164 227.73 229.164 225.613C229.164 223.496 229.633 221.852 230.57 220.68C231.508 219.508 232.812 218.922 234.484 218.922C236.227 218.922 237.562 219.555 238.492 220.82H238.645L238.562 219.895L238.516 218.992V213.766H240.461V232H238.879L238.621 230.277ZM234.73 230.605C236.059 230.605 237.02 230.246 237.613 229.527C238.215 228.801 238.516 227.633 238.516 226.023V225.613C238.516 223.793 238.211 222.496 237.602 221.723C237 220.941 236.035 220.551 234.707 220.551C233.566 220.551 232.691 220.996 232.082 221.887C231.48 222.77 231.18 224.02 231.18 225.637C231.18 227.277 231.48 228.516 232.082 229.352C232.684 230.188 233.566 230.605 234.73 230.605Z" fill="#333333"/>
</svg>
