<svg width="152" height="76" viewBox="0 0 152 76" fill="none" xmlns="http://www.w3.org/2000/svg">
<path d="M1.155 36.0312C1.155 35.125 1.24875 34.1094 1.43625 32.9844C1.655 31.8594 1.95187 30.7344 2.32687 29.6094C2.73312 28.4531 3.23312 27.3438 3.82687 26.2812C4.45187 25.2188 5.155 24.2656 5.93625 23.4219C6.74875 22.5781 7.63937 21.9062 8.60812 21.4062C9.57687 20.9062 10.6394 20.6562 11.7956 20.6562C12.7956 20.6562 13.7175 20.8906 14.5612 21.3594C15.405 21.7969 16.1706 22.375 16.8581 23.0938C17.5769 23.7812 18.2019 24.5938 18.7331 25.5312C19.2644 26.4688 19.7175 27.4375 20.0925 28.4375C20.4675 29.4062 20.7487 30.375 20.9362 31.3438C21.155 32.2812 21.2644 33.1406 21.2644 33.9219C21.2644 35.0156 21.0769 36.0312 20.7019 36.9688C20.3269 37.9062 19.8112 38.75 19.155 39.5C18.53 40.25 17.78 40.9062 16.905 41.4688C16.0612 42.0312 15.155 42.5156 14.1862 42.9219C13.2175 43.2969 12.2175 43.5781 11.1862 43.7656C10.1862 43.9531 9.18625 44.0469 8.18625 44.0469C6.8425 44.0469 5.7175 43.8594 4.81125 43.4844C3.93625 43.1094 3.2175 42.5781 2.655 41.8906C2.12375 41.1719 1.73312 40.3281 1.48312 39.3594C1.26437 38.3594 1.155 37.25 1.155 36.0312ZM2.79562 37.0625C2.79562 37.9375 2.93625 38.7031 3.2175 39.3594C3.49875 39.9844 3.88937 40.5 4.38937 40.9062C4.88937 41.2812 5.48312 41.5625 6.17062 41.75C6.85812 41.9062 7.62375 41.9844 8.4675 41.9844C9.78 41.9844 11.1081 41.8438 12.4519 41.5625C13.7956 41.25 14.9987 40.7656 16.0612 40.1094C17.1237 39.4219 17.9831 38.5625 18.6394 37.5312C19.3269 36.4688 19.6706 35.1875 19.6706 33.6875C19.6706 32.75 19.4831 31.625 19.1081 30.3125C18.7644 29 18.2644 27.75 17.6081 26.5625C16.9519 25.375 16.1394 24.375 15.1706 23.5625C14.2331 22.7188 13.1862 22.2969 12.03 22.2969C11.4987 22.2969 11.0456 22.3281 10.6706 22.3906C10.3269 22.4219 9.88937 22.5312 9.35812 22.7188V22.9531V23.1406C9.35812 23.1719 9.37375 23.25 9.405 23.375C9.4675 23.5 9.53 23.6406 9.5925 23.7969C9.655 23.9219 9.70187 24.0469 9.73312 24.1719C9.76437 24.2969 9.78 24.375 9.78 24.4062C9.78 24.6875 9.70187 24.9062 9.54562 25.0625C9.38937 25.1875 9.20187 25.2812 8.98312 25.3438C8.79562 25.4062 8.57687 25.4531 8.32687 25.4844C8.10812 25.5156 7.905 25.5625 7.7175 25.625C6.68625 26.0625 5.8425 26.7188 5.18625 27.5938C4.56125 28.4688 4.06125 29.4531 3.68625 30.5469C3.3425 31.6094 3.10812 32.7188 2.98312 33.875C2.85812 35.0312 2.79562 36.0938 2.79562 37.0625ZM57.4162 22.7188C57.0725 22.8438 56.8381 23.0156 56.7131 23.2344C56.6194 23.4219 56.51 23.6719 56.385 23.9844C56.3225 24.1094 56.1975 24.4062 56.01 24.875C55.8225 25.3125 55.6037 25.8438 55.3537 26.4688C55.1037 27.0938 54.8225 27.75 54.51 28.4375C54.2287 29.125 53.9631 29.7812 53.7131 30.4062C53.4631 31.0312 53.2444 31.5781 53.0569 32.0469C52.8694 32.5156 52.7444 32.8281 52.6819 32.9844C52.4631 33.4844 52.1819 34.0625 51.8381 34.7188C51.5256 35.375 51.135 36 50.6662 36.5938C50.2287 37.1875 49.7287 37.6875 49.1662 38.0938C48.635 38.5 48.0412 38.7031 47.385 38.7031C46.3537 38.7031 45.5256 38.3125 44.9006 37.5312C44.2756 36.7188 43.7912 35.6875 43.4475 34.4375C43.135 33.1562 42.9162 31.7344 42.7912 30.1719C42.6662 28.5781 42.5569 27.0312 42.4631 25.5312C42.4006 24.0312 42.3225 22.625 42.2287 21.3125C42.135 20 41.9475 18.9688 41.6662 18.2188C41.6037 18.2188 41.5569 18.2188 41.5256 18.2188C41.4944 18.2188 41.4631 18.2188 41.4319 18.2188C41.4006 18.2188 41.385 18.2188 41.385 18.2188C41.385 18.2188 41.3694 18.2188 41.3381 18.2188H41.2444C40.9319 18.4062 40.635 18.6875 40.3537 19.0625C40.1037 19.4375 39.8694 19.8438 39.6506 20.2812C39.4319 20.6875 39.2444 21.0781 39.0881 21.4531C38.9631 21.8281 38.8694 22.125 38.8069 22.3438L33.4631 39.5C33.4319 39.5938 33.385 39.7188 33.3225 39.875C33.26 40.0312 33.1662 40.1875 33.0412 40.3438C32.9475 40.4688 32.8225 40.5781 32.6662 40.6719C32.5412 40.7656 32.4006 40.7812 32.2444 40.7188C32.1506 40.7188 32.0256 40.6562 31.8694 40.5312C31.7444 40.375 31.6194 40.2188 31.4944 40.0625C31.3694 39.875 31.26 39.7031 31.1662 39.5469C31.0725 39.3594 31.01 39.2188 30.9787 39.125C30.51 35.9688 30.2444 32.75 30.1819 29.4688C30.1194 26.1875 30.1194 23 30.1819 19.9062C30.1506 19.8438 30.0725 19.7031 29.9475 19.4844C29.8537 19.2656 29.8069 19.125 29.8069 19.0625C29.8069 18.8438 29.8694 18.625 29.9944 18.4062C30.1506 18.1562 30.3225 17.9219 30.51 17.7031C30.7287 17.4844 30.9475 17.3125 31.1662 17.1875C31.4162 17.0312 31.635 16.9531 31.8225 16.9531C32.135 16.9531 32.3537 17.0469 32.4787 17.2344C32.6037 17.3906 32.6662 17.625 32.6662 17.9375C32.6662 19.625 32.5881 21.2969 32.4319 22.9531C32.2756 24.6094 32.1975 26.2969 32.1975 28.0156C32.1975 28.2344 32.1975 28.5469 32.1975 28.9531C32.1975 29.3594 32.1975 29.7656 32.1975 30.1719C32.2287 30.5469 32.2444 30.8906 32.2444 31.2031C32.2444 31.5156 32.2444 31.6875 32.2444 31.7188L32.6662 33.4062C32.6975 33.3438 32.76 33.2656 32.8537 33.1719C32.9787 33.0781 33.0569 33.0156 33.0881 32.9844C33.1506 32.8594 33.26 32.625 33.4162 32.2812C33.5725 31.9375 33.7287 31.5781 33.885 31.2031C34.0725 30.7969 34.2444 30.4219 34.4006 30.0781C34.5569 29.7031 34.6506 29.4375 34.6819 29.2812C34.7444 29.125 34.8537 28.8438 35.01 28.4375C35.1662 28 35.3537 27.4844 35.5725 26.8906C35.7912 26.2656 36.0256 25.625 36.2756 24.9688C36.5569 24.3125 36.8069 23.6875 37.0256 23.0938C37.2444 22.5 37.4319 21.9844 37.5881 21.5469C37.7756 21.1094 37.9006 20.8125 37.9631 20.6562C38.0881 20.4062 38.2756 19.9688 38.5256 19.3438C38.8069 18.6875 39.135 18.0469 39.51 17.4219C39.9162 16.7656 40.3381 16.1875 40.7756 15.6875C41.2444 15.1875 41.7287 14.9375 42.2287 14.9375C42.6975 14.9375 43.0569 15.25 43.3069 15.875C43.5569 16.5 43.7444 17.3281 43.8694 18.3594C44.0256 19.3594 44.135 20.5156 44.1975 21.8281C44.26 23.1094 44.3069 24.4375 44.3381 25.8125C44.4006 27.1875 44.4787 28.5312 44.5725 29.8438C44.6975 31.125 44.8694 32.2812 45.0881 33.3125C45.3069 34.3125 45.6037 35.125 45.9787 35.75C46.385 36.375 46.9162 36.6875 47.5725 36.6875C47.76 36.6875 47.9631 36.5938 48.1819 36.4062C48.4319 36.1875 48.6662 35.9375 48.885 35.6562C49.1037 35.375 49.2912 35.0938 49.4475 34.8125C49.635 34.5312 49.76 34.3125 49.8225 34.1562C50.0412 33.75 50.3537 33.1094 50.76 32.2344C51.1662 31.3594 51.6194 30.375 52.1194 29.2812C52.6506 28.1875 53.1975 27.0312 53.76 25.8125C54.3225 24.5938 54.8537 23.4375 55.3537 22.3438C55.8537 21.2188 56.3069 20.2188 56.7131 19.3438C57.1194 18.4688 57.4162 17.8125 57.6037 17.375C57.76 17 57.9631 16.4844 58.2131 15.8281C58.4944 15.1719 58.6975 14.6094 58.8225 14.1406C59.1975 14.2031 59.5725 14.3125 59.9475 14.4688C60.3225 14.625 60.51 14.9063 60.51 15.3125C60.51 15.375 60.4944 15.4688 60.4631 15.5938C60.4631 15.6875 60.4631 15.75 60.4631 15.7812C60.0256 18.3438 59.6975 20.8438 59.4787 23.2812C59.2912 25.6875 59.1975 28.1719 59.1975 30.7344C59.1975 30.9531 59.1975 31.3438 59.1975 31.9062C59.1975 32.4375 59.1975 33.0312 59.1975 33.6875C59.2287 34.3125 59.2444 34.9062 59.2444 35.4688C59.2444 36 59.2444 36.3906 59.2444 36.6406C59.4006 37.9219 59.8537 39.0938 60.6037 40.1562C61.3537 41.2188 62.1194 42.2188 62.9006 43.1562V44.2344C62.6194 44.2344 62.2756 44.0938 61.8694 43.8125C61.4631 43.5 61.0569 43.1094 60.6506 42.6406C60.2444 42.1719 59.8381 41.6406 59.4319 41.0469C59.0569 40.4531 58.7131 39.875 58.4006 39.3125C58.1194 38.75 57.885 38.2344 57.6975 37.7656C57.51 37.2969 57.4162 36.9219 57.4162 36.6406V22.7188ZM78.0056 43.625C77.8181 43.4688 77.4587 43.2031 76.9275 42.8281C76.4275 42.4219 75.8962 42 75.3337 41.5625C74.7712 41.0938 74.24 40.6719 73.74 40.2969C73.24 39.9219 72.8962 39.6562 72.7087 39.5C72.4275 39.2812 72.1931 39.0938 72.0056 38.9375C71.8494 38.75 71.7712 38.4531 71.7712 38.0469C72.24 38.0469 72.6462 38.1719 72.99 38.4219C73.3337 38.6406 73.6619 38.8906 73.9744 39.1719C74.3181 39.4219 74.6619 39.6562 75.0056 39.875C75.3806 40.0938 75.8025 40.2031 76.2712 40.2031C76.2712 39.8906 76.2712 39.3438 76.2712 38.5625C76.3025 37.75 76.3181 36.8906 76.3181 35.9844C76.3494 35.0781 76.365 34.2344 76.365 33.4531C76.3962 32.6406 76.4119 32.0625 76.4119 31.7188C76.4119 31.5938 76.3806 31.2969 76.3181 30.8281C76.2869 30.3281 76.24 29.8125 76.1775 29.2812C76.1462 28.7188 76.0994 28.2031 76.0369 27.7344C76.0056 27.2656 75.99 26.9688 75.99 26.8438C75.99 26.7812 76.0056 26.6094 76.0369 26.3281C76.0681 26.0156 76.115 25.7031 76.1775 25.3906C76.24 25.0781 76.2869 24.7812 76.3181 24.5C76.3806 24.2188 76.4119 24.0469 76.4119 23.9844V22.9531V21.875C76.4119 21.8125 76.3806 21.625 76.3181 21.3125C76.2869 21 76.24 20.6562 76.1775 20.2812C76.115 19.9062 76.0681 19.5625 76.0369 19.25C76.0056 18.9375 75.99 18.7344 75.99 18.6406C75.99 18.5156 76.0056 18.2969 76.0369 17.9844C76.0681 17.6719 76.0994 17.3438 76.1306 17C76.1619 16.6562 76.1931 16.3281 76.2244 16.0156C76.2869 15.7031 76.3494 15.5 76.4119 15.4062C76.8806 15 77.24 14.75 77.49 14.6562C77.74 14.5625 78.0994 14.5156 78.5681 14.5156C79.8806 14.5156 81.1775 14.7656 82.4587 15.2656C83.74 15.7344 84.9587 16.3906 86.115 17.2344C87.2712 18.0781 88.3181 19.0625 89.2556 20.1875C90.2244 21.3125 91.0525 22.5 91.74 23.75C92.4587 25 93.0212 26.2969 93.4275 27.6406C93.8337 28.9531 94.0369 30.2188 94.0369 31.4375C94.0369 32.8438 93.74 34.2969 93.1462 35.7969C92.5837 37.2969 91.8025 38.6562 90.8025 39.875C89.8025 41.0938 88.6306 42.0938 87.2869 42.875C85.9744 43.6562 84.5681 44.0469 83.0681 44.0469C82.6306 44.0469 82.2087 44.0156 81.8025 43.9531C81.3962 43.8906 80.9744 43.8281 80.5369 43.7656C80.1306 43.7031 79.7087 43.6562 79.2712 43.625C78.865 43.5625 78.4431 43.5625 78.0056 43.625ZM79.2712 41.5625C79.2712 41.5938 79.3181 41.6719 79.4119 41.7969C79.5056 41.8906 79.5994 41.9531 79.6931 41.9844C79.7556 42.0156 79.8806 42.0781 80.0681 42.1719C80.2869 42.2344 80.5212 42.3125 80.7712 42.4062C81.0525 42.5 81.3181 42.5781 81.5681 42.6406C81.8181 42.7031 81.99 42.75 82.0837 42.7812H82.365C83.1462 42.7812 83.9431 42.5938 84.7556 42.2188C85.5681 41.8125 86.3494 41.2969 87.0994 40.6719C87.8494 40.0469 88.5369 39.3281 89.1619 38.5156C89.7869 37.6719 90.3337 36.8125 90.8025 35.9375C91.2712 35.0625 91.6462 34.1875 91.9275 33.3125C92.2087 32.4375 92.3494 31.625 92.3494 30.875C92.3494 29.9688 92.1619 28.9844 91.7869 27.9219C91.4119 26.8594 90.8962 25.7969 90.24 24.7344C89.615 23.6719 88.8806 22.6562 88.0369 21.6875C87.1931 20.6875 86.2869 19.8125 85.3181 19.0625C84.3806 18.3125 83.4119 17.7188 82.4119 17.2812C81.4431 16.8125 80.49 16.5781 79.5525 16.5781C79.3337 16.5781 79.115 16.5938 78.8962 16.625C78.6775 16.625 78.4744 16.6562 78.2869 16.7188C78.0994 16.7812 77.9275 16.8906 77.7712 17.0469C77.6462 17.2031 77.5837 17.4219 77.5837 17.7031C77.5837 18.2344 77.5837 18.7656 77.5837 19.2969C77.5837 19.8281 77.5994 20.375 77.6306 20.9375C77.6931 21.4688 77.7712 22 77.865 22.5312C77.99 23.0312 78.1775 23.5156 78.4275 23.9844L79.2712 41.5625ZM102.486 36.6406C103.236 37.4844 104.017 38.2656 104.829 38.9844C105.642 39.6719 106.501 40.2812 107.408 40.8125C108.314 41.3125 109.267 41.7031 110.267 41.9844C111.298 42.2656 112.376 42.4062 113.501 42.4062C114.908 42.4062 116.314 42.1562 117.72 41.6562C119.126 41.125 120.392 40.4062 121.517 39.5C122.673 38.5625 123.611 37.4531 124.329 36.1719C125.048 34.8906 125.408 33.5 125.408 32C125.408 31.1562 125.204 30.4219 124.798 29.7969C124.392 29.1406 123.861 28.5938 123.204 28.1562C122.579 27.7188 121.861 27.3906 121.048 27.1719C120.267 26.9219 119.486 26.7969 118.704 26.7969C118.298 26.7969 117.783 26.8594 117.158 26.9844C116.564 27.0781 115.923 27.2188 115.236 27.4062C114.548 27.5625 113.845 27.7656 113.126 28.0156C112.408 28.2344 111.736 28.4844 111.111 28.7656C110.486 29.0469 109.954 29.3438 109.517 29.6562C109.079 29.9375 108.767 30.2188 108.579 30.5C108.579 30.6562 108.548 30.9219 108.486 31.2969C108.454 31.6719 108.408 32.0938 108.345 32.5625C108.314 33 108.283 33.4219 108.251 33.8281C108.22 34.2031 108.189 34.4688 108.158 34.625C108.158 34.8125 108.126 35.0469 108.064 35.3281C108.001 35.5781 107.923 35.8438 107.829 36.125C107.767 36.375 107.658 36.625 107.501 36.875C107.376 37.125 107.204 37.3281 106.986 37.4844C106.548 37.2969 106.236 37 106.048 36.5938C105.861 36.1562 105.736 35.6875 105.673 35.1875C105.642 34.6562 105.642 34.1406 105.673 33.6406C105.704 33.1094 105.72 32.6719 105.72 32.3281C105.72 32.0156 105.72 31.5 105.72 30.7812C105.751 30.0625 105.783 29.2188 105.814 28.25C105.876 27.2812 105.954 26.2344 106.048 25.1094C106.173 23.9531 106.329 22.8125 106.517 21.6875C106.704 20.5312 106.939 19.4375 107.22 18.4062C107.501 17.3438 107.845 16.4062 108.251 15.5938C108.658 14.75 109.126 14.0938 109.658 13.625C110.22 13.125 110.845 12.875 111.533 12.875C112.345 12.875 113.064 13.0625 113.689 13.4375C114.345 13.8125 114.892 14.2969 115.329 14.8906C115.798 15.4531 116.158 16.1094 116.408 16.8594C116.689 17.5781 116.829 18.3125 116.829 19.0625C116.829 19.6562 116.72 20.2344 116.501 20.7969C116.283 21.3281 116.048 21.8438 115.798 22.3438C115.579 22.8438 115.361 23.3438 115.142 23.8438C114.923 24.3438 114.814 24.8594 114.814 25.3906C115.564 25.3906 116.408 25.4062 117.345 25.4375C118.283 25.4688 119.236 25.5469 120.204 25.6719C121.173 25.7969 122.111 26.0156 123.017 26.3281C123.954 26.6094 124.783 27.0156 125.501 27.5469C126.22 28.0469 126.783 28.6875 127.189 29.4688C127.626 30.25 127.845 31.2031 127.845 32.3281C127.845 33.4531 127.642 34.5312 127.236 35.5625C126.829 36.5625 126.267 37.5 125.548 38.375C124.861 39.25 124.048 40.0312 123.111 40.7188C122.204 41.4062 121.22 42 120.158 42.5C119.126 43 118.064 43.3906 116.97 43.6719C115.908 43.9219 114.876 44.0469 113.876 44.0469C113.345 44.0469 112.673 43.9688 111.861 43.8125C111.079 43.625 110.267 43.3906 109.423 43.1094C108.579 42.7969 107.736 42.4219 106.892 41.9844C106.079 41.5156 105.345 41.0312 104.689 40.5312C104.033 40 103.501 39.4219 103.095 38.7969C102.689 38.1719 102.486 37.5156 102.486 36.8281V36.6406ZM112.095 14.9375C111.689 14.9375 111.329 15.1406 111.017 15.5469C110.704 15.9531 110.423 16.4844 110.173 17.1406C109.954 17.7656 109.767 18.4688 109.611 19.25C109.486 20 109.361 20.75 109.236 21.5C109.142 22.2188 109.079 22.875 109.048 23.4688C109.017 24.0625 109.001 24.5 109.001 24.7812C109.001 24.875 109.001 25.0469 109.001 25.2969C109.001 25.5156 109.001 25.75 109.001 26C109.001 26.25 109.001 26.5 109.001 26.75C109.001 26.9688 109.001 27.125 109.001 27.2188C109.751 26.7188 110.47 26.1719 111.158 25.5781C111.845 24.9844 112.454 24.3594 112.986 23.7031C113.548 23.0156 113.986 22.2812 114.298 21.5C114.642 20.6875 114.814 19.7969 114.814 18.8281C114.814 18.3906 114.767 17.9375 114.673 17.4688C114.579 17 114.423 16.5781 114.204 16.2031C114.017 15.8281 113.736 15.5312 113.361 15.3125C113.017 15.0625 112.595 14.9375 112.095 14.9375Z" fill="#383838"/>
<path d="M79.2676 58.4961C79.0254 57.793 78.7949 57.1367 78.5762 56.5273C78.3652 55.9102 78.1777 55.3086 78.0137 54.7227C77.8574 54.1289 77.7324 53.5273 77.6387 52.918C77.5449 52.3086 77.498 51.6562 77.498 50.9609C77.498 50.9062 77.498 50.8086 77.498 50.668C77.5059 50.5195 77.5098 50.3672 77.5098 50.2109C77.5098 50.0547 77.5098 49.9062 77.5098 49.7656C77.5176 49.6172 77.5215 49.5156 77.5215 49.4609C77.5918 49.3047 77.7129 49.1602 77.8848 49.0273C78.0645 48.8945 78.2441 48.8281 78.4238 48.8281C78.4238 49.4062 78.4316 50.0234 78.4473 50.6797C78.4629 51.3281 78.5098 51.9766 78.5879 52.625C78.6738 53.2734 78.8066 53.9102 78.9863 54.5352C79.1738 55.1523 79.4355 55.7188 79.7715 56.2344C79.7793 56.0469 79.7871 55.8398 79.7949 55.6133C79.8027 55.3867 79.8223 55.1602 79.8535 54.9336C79.8926 54.707 79.9512 54.4883 80.0293 54.2773C80.1074 54.0664 80.2207 53.8789 80.3691 53.7148C80.5254 53.5508 80.7246 53.4219 80.9668 53.3281C81.2168 53.2344 81.5293 53.1914 81.9043 53.1992C82.2402 53.1992 82.541 53.2617 82.8066 53.3867C83.0801 53.5117 83.3066 53.6836 83.4863 53.9023C83.6738 54.1133 83.8145 54.3633 83.9082 54.6523C84.0098 54.9336 84.0605 55.2344 84.0605 55.5547C84.0605 55.9844 83.9551 56.4062 83.7441 56.8203C83.5332 57.2344 83.252 57.6055 82.9004 57.9336C82.5566 58.2617 82.1699 58.5273 81.7402 58.7305C81.3105 58.9258 80.873 59.0234 80.4277 59.0234C80.2012 59.0234 79.9824 58.9844 79.7715 58.9062C79.5605 58.8203 79.3926 58.6836 79.2676 58.4961ZM82.0449 54.2188C81.8887 54.3047 81.7246 54.4062 81.5527 54.5234C81.3809 54.6406 81.2207 54.8242 81.0723 55.0742C80.9316 55.3164 80.8105 55.6484 80.709 56.0703C80.6074 56.4922 80.5449 57.0508 80.5215 57.7461C80.5371 57.7461 80.5762 57.75 80.6387 57.7578C80.709 57.7656 80.7559 57.7695 80.7793 57.7695C80.9902 57.7695 81.2285 57.7031 81.4941 57.5703C81.7676 57.4375 82.0293 57.2734 82.2793 57.0781C82.5371 56.8828 82.7598 56.668 82.9473 56.4336C83.1348 56.1914 83.248 55.9609 83.2871 55.7422C83.3105 55.6094 83.2832 55.457 83.2051 55.2852C83.127 55.1133 83.0215 54.9492 82.8887 54.793C82.7637 54.6289 82.623 54.4922 82.4668 54.3828C82.3184 54.2734 82.1777 54.2188 82.0449 54.2188ZM84.5762 52.9414C84.5762 52.8711 84.5762 52.8008 84.5762 52.7305C84.584 52.6523 84.5996 52.582 84.623 52.5195C84.6543 52.4492 84.6934 52.3984 84.7402 52.3672C84.7949 52.3281 84.873 52.3086 84.9746 52.3086C84.9824 52.3086 84.9902 52.3086 84.998 52.3086C85.0137 52.3086 85.0293 52.3086 85.0449 52.3086C85.0684 52.3164 85.0879 52.3203 85.1035 52.3203C85.252 52.5234 85.3809 52.7852 85.4902 53.1055C85.5996 53.418 85.7051 53.7539 85.8066 54.1133C85.9082 54.4648 86.0176 54.8242 86.1348 55.1914C86.252 55.5508 86.4043 55.875 86.5918 56.1641C86.7793 56.4531 87.0098 56.6836 87.2832 56.8555C87.5566 57.0273 87.8965 57.1016 88.3027 57.0781C88.4824 57.0781 88.5996 56.9805 88.6543 56.7852C88.709 56.5898 88.7363 56.3398 88.7363 56.0352C88.7441 55.7305 88.7363 55.3945 88.7129 55.0273C88.6973 54.6602 88.6973 54.3125 88.7129 53.9844C88.7363 53.6484 88.7949 53.3555 88.8887 53.1055C88.9902 52.8555 89.1621 52.6875 89.4043 52.6016C89.5059 52.8047 89.5879 53.125 89.6504 53.5625C89.7207 53.9922 89.7715 54.4922 89.8027 55.0625C89.834 55.625 89.8496 56.2383 89.8496 56.9023C89.8496 57.5586 89.834 58.2148 89.8027 58.8711C89.7715 59.5195 89.7246 60.1445 89.6621 60.7461C89.5996 61.3477 89.5293 61.875 89.4512 62.3281C89.373 62.7812 89.2793 63.1367 89.1699 63.3945C89.0684 63.6602 88.959 63.7734 88.8418 63.7344C88.6777 63.5781 88.5488 63.375 88.4551 63.125C88.3691 62.875 88.3066 62.5977 88.2676 62.293C88.2363 61.9883 88.2246 61.6641 88.2324 61.3203C88.2402 60.9844 88.252 60.6445 88.2676 60.3008C88.291 59.957 88.3145 59.6211 88.3379 59.293C88.3691 58.9648 88.3848 58.6641 88.3848 58.3906C88.1035 58.4141 87.8145 58.3711 87.5176 58.2617C87.2285 58.1523 86.9434 57.9844 86.6621 57.7578C86.3809 57.5234 86.1113 57.2422 85.8535 56.9141C85.6035 56.5859 85.3809 56.2148 85.1855 55.8008C84.998 55.3867 84.8496 54.9414 84.7402 54.4648C84.6309 53.9805 84.5762 53.4727 84.5762 52.9414ZM95.9551 56.6211C95.9551 56.1367 96.0684 55.6875 96.2949 55.2734C96.5215 54.8516 96.8184 54.4922 97.1855 54.1953C97.5605 53.8906 97.9785 53.6523 98.4395 53.4805C98.9082 53.3086 99.3809 53.2227 99.8574 53.2227C100.123 53.2227 100.357 53.3086 100.561 53.4805C100.771 53.6523 100.947 53.8633 101.088 54.1133C101.229 54.3555 101.334 54.6133 101.404 54.8867C101.482 55.1602 101.521 55.3984 101.521 55.6016C101.521 56.0391 101.416 56.4648 101.205 56.8789C100.994 57.2852 100.721 57.6484 100.385 57.9688C100.049 58.2812 99.6699 58.5352 99.248 58.7305C98.8262 58.9258 98.4043 59.0234 97.9824 59.0234C97.6074 59.0234 97.291 58.9609 97.0332 58.8359C96.7754 58.7031 96.5684 58.5312 96.4121 58.3203C96.2559 58.1016 96.1387 57.8477 96.0605 57.5586C95.9902 57.2617 95.9551 56.9492 95.9551 56.6211ZM96.9512 56.7383C96.9512 56.9414 96.9668 57.1211 96.998 57.2773C97.0371 57.4258 97.0996 57.5547 97.1855 57.6641C97.2793 57.7734 97.4004 57.8594 97.5488 57.9219C97.6973 57.9766 97.8809 58.0039 98.0996 58.0039C98.3887 58.0039 98.6777 57.9258 98.9668 57.7695C99.2559 57.6055 99.5137 57.4023 99.7402 57.1602C99.9746 56.9102 100.162 56.6367 100.303 56.3398C100.443 56.043 100.514 55.7539 100.514 55.4727C100.514 55.3477 100.502 55.2109 100.479 55.0625C100.455 54.9141 100.416 54.7773 100.361 54.6523C100.307 54.5273 100.229 54.4219 100.127 54.3359C100.025 54.25 99.8965 54.207 99.7402 54.207C99.5996 54.207 99.4316 54.2539 99.2363 54.3477C99.0488 54.4414 98.8496 54.5625 98.6387 54.7109C98.4355 54.8594 98.2324 55.0273 98.0293 55.2148C97.834 55.4023 97.6543 55.5898 97.4902 55.7773C97.3262 55.9648 97.1934 56.1445 97.0918 56.3164C96.998 56.4883 96.9512 56.6289 96.9512 56.7383ZM106.01 53.2227C106.025 53.207 106.037 53.1875 106.045 53.1641C106.061 53.1328 106.068 53.1094 106.068 53.0938C106.068 52.9141 105.959 52.7969 105.74 52.7422C105.529 52.6797 105.264 52.6523 104.943 52.6602C104.623 52.6602 104.275 52.6758 103.9 52.707C103.533 52.7383 103.189 52.7539 102.869 52.7539C102.549 52.7461 102.279 52.707 102.061 52.6367C101.85 52.5586 101.744 52.418 101.744 52.2148C101.744 52.082 101.752 51.9844 101.768 51.9219C101.791 51.8516 101.822 51.8047 101.861 51.7812C101.9 51.75 101.947 51.7344 102.002 51.7344C102.064 51.7266 102.131 51.7227 102.201 51.7227H102.506C102.6 51.7305 102.752 51.7422 102.963 51.7578C103.174 51.7656 103.412 51.7773 103.678 51.793C103.943 51.8008 104.221 51.8164 104.51 51.8398C104.807 51.8555 105.084 51.8711 105.342 51.8867C105.607 51.9023 105.842 51.918 106.045 51.9336C106.256 51.9492 106.416 51.9609 106.525 51.9688C106.666 52.0547 106.783 52.1328 106.877 52.2031C106.979 52.2734 107.057 52.3438 107.111 52.4141C107.174 52.4844 107.217 52.5625 107.24 52.6484C107.271 52.7266 107.287 52.8281 107.287 52.9531C107.287 53.2188 107.232 53.4805 107.123 53.7383C107.014 53.9883 106.873 54.2422 106.701 54.5C106.537 54.75 106.346 55.0039 106.127 55.2617C105.916 55.5117 105.709 55.7617 105.506 56.0117C105.303 56.2617 105.111 56.5117 104.932 56.7617C104.752 57.0117 104.611 57.2539 104.51 57.4883H107.521C107.748 57.4883 107.893 57.5312 107.955 57.6172C108.018 57.7031 108.049 57.8242 108.049 57.9805C108.049 58.0898 108.037 58.1914 108.014 58.2852C107.99 58.3789 107.908 58.4492 107.768 58.4961C107.393 58.5273 107.014 58.5742 106.631 58.6367C106.248 58.6992 105.865 58.7617 105.482 58.8242C105.1 58.8867 104.713 58.9414 104.322 58.9883C103.939 59.0352 103.557 59.0586 103.174 59.0586C103.174 58.4961 103.26 57.957 103.432 57.4414C103.611 56.918 103.838 56.4141 104.111 55.9297C104.393 55.4453 104.697 54.9766 105.025 54.5234C105.361 54.0703 105.689 53.6367 106.01 53.2227ZM113.803 57.4883C113.506 57.6914 113.248 57.875 113.029 58.0391C112.818 58.1953 112.611 58.3281 112.408 58.4375C112.205 58.5469 111.986 58.6289 111.752 58.6836C111.525 58.7383 111.244 58.7656 110.908 58.7656C110.182 58.7656 109.643 58.5742 109.291 58.1914C108.939 57.8008 108.764 57.2227 108.764 56.457C108.764 56.1602 108.803 55.8516 108.881 55.5312C108.959 55.2109 109.072 54.8945 109.221 54.582C109.377 54.2617 109.561 53.9609 109.771 53.6797C109.982 53.3906 110.221 53.1367 110.486 52.918C110.752 52.6992 111.033 52.5273 111.33 52.4023C111.635 52.2695 111.955 52.2031 112.291 52.2031C112.854 52.2578 113.295 52.3984 113.615 52.625C113.936 52.8438 114.178 53.1289 114.342 53.4805C114.506 53.8242 114.619 54.2109 114.682 54.6406C114.744 55.0625 114.791 55.5 114.822 55.9531C114.861 56.4062 114.908 56.8594 114.963 57.3125C115.018 57.7656 115.131 58.1836 115.303 58.5664C115.201 58.8242 115.104 59.0039 115.01 59.1055C114.924 59.2148 114.826 59.2344 114.717 59.1641C114.607 59.0938 114.479 58.9219 114.33 58.6484C114.189 58.375 114.014 57.9883 113.803 57.4883ZM109.76 56.4805C109.76 56.9258 109.842 57.2539 110.006 57.4648C110.178 57.668 110.479 57.7695 110.908 57.7695C111.229 57.7695 111.533 57.7148 111.822 57.6055C112.119 57.4883 112.377 57.332 112.596 57.1367C112.814 56.9336 112.99 56.6914 113.123 56.4102C113.256 56.1289 113.322 55.8164 113.322 55.4727C113.322 55.332 113.326 55.1367 113.334 54.8867C113.342 54.6289 113.326 54.375 113.287 54.125C113.248 53.875 113.174 53.6602 113.064 53.4805C112.955 53.293 112.791 53.1992 112.572 53.1992C112.166 53.1992 111.791 53.3047 111.447 53.5156C111.104 53.7188 110.807 53.9805 110.557 54.3008C110.307 54.6211 110.111 54.9766 109.971 55.3672C109.83 55.75 109.76 56.1211 109.76 56.4805ZM116.041 55.0508C116.041 54.8477 116.092 54.7031 116.193 54.6172C116.295 54.5234 116.459 54.4766 116.686 54.4766H116.803C116.826 54.6016 116.854 54.7461 116.885 54.9102C116.916 55.0742 116.963 55.2422 117.025 55.4141C117.088 55.5859 117.162 55.7461 117.248 55.8945C117.334 56.0352 117.439 56.1484 117.564 56.2344C117.572 55.9609 117.639 55.6992 117.764 55.4492C117.896 55.1914 118.057 54.9648 118.244 54.7695C118.439 54.5664 118.65 54.3984 118.877 54.2656C119.111 54.125 119.342 54.0312 119.568 53.9844H119.826C120.201 53.9844 120.521 54.0703 120.787 54.2422C121.053 54.4062 121.271 54.625 121.443 54.8984C121.623 55.1641 121.76 55.4688 121.854 55.8125C121.947 56.1562 122.018 56.5078 122.064 56.8672C122.119 57.2188 122.15 57.5625 122.158 57.8984C122.174 58.2266 122.182 58.5078 122.182 58.7422H121.326C121.279 58.2734 121.221 57.8242 121.15 57.3945C121.127 57.2227 121.096 57.043 121.057 56.8555C121.018 56.6602 120.975 56.4805 120.928 56.3164C120.881 56.1445 120.83 55.9883 120.775 55.8477C120.721 55.6992 120.658 55.5742 120.588 55.4727C120.557 55.4414 120.514 55.3984 120.459 55.3438C120.412 55.2891 120.361 55.2344 120.307 55.1797C120.252 55.125 120.201 55.0781 120.154 55.0391C120.107 55 120.08 54.9805 120.072 54.9805C119.838 54.918 119.635 54.9648 119.463 55.1211C119.291 55.2695 119.139 55.4727 119.006 55.7305C118.873 55.9883 118.764 56.2812 118.678 56.6094C118.6 56.9375 118.533 57.2539 118.479 57.5586C118.424 57.8555 118.385 58.1172 118.361 58.3438C118.338 58.5625 118.322 58.6953 118.314 58.7422C118.119 58.8828 117.936 58.9258 117.764 58.8711C117.592 58.8086 117.428 58.6836 117.271 58.4961C117.123 58.3086 116.986 58.0742 116.861 57.793C116.744 57.5117 116.635 57.2148 116.533 56.9023C116.432 56.582 116.338 56.2617 116.252 55.9414C116.174 55.6211 116.104 55.3242 116.041 55.0508ZM127.865 57.4883C127.568 57.6914 127.311 57.875 127.092 58.0391C126.881 58.1953 126.674 58.3281 126.471 58.4375C126.268 58.5469 126.049 58.6289 125.814 58.6836C125.588 58.7383 125.307 58.7656 124.971 58.7656C124.244 58.7656 123.705 58.5742 123.354 58.1914C123.002 57.8008 122.826 57.2227 122.826 56.457C122.826 56.1602 122.865 55.8516 122.943 55.5312C123.021 55.2109 123.135 54.8945 123.283 54.582C123.439 54.2617 123.623 53.9609 123.834 53.6797C124.045 53.3906 124.283 53.1367 124.549 52.918C124.814 52.6992 125.096 52.5273 125.393 52.4023C125.697 52.2695 126.018 52.2031 126.354 52.2031C126.916 52.2578 127.357 52.3984 127.678 52.625C127.998 52.8438 128.24 53.1289 128.404 53.4805C128.568 53.8242 128.682 54.2109 128.744 54.6406C128.807 55.0625 128.854 55.5 128.885 55.9531C128.924 56.4062 128.971 56.8594 129.025 57.3125C129.08 57.7656 129.193 58.1836 129.365 58.5664C129.264 58.8242 129.166 59.0039 129.072 59.1055C128.986 59.2148 128.889 59.2344 128.779 59.1641C128.67 59.0938 128.541 58.9219 128.393 58.6484C128.252 58.375 128.076 57.9883 127.865 57.4883ZM123.822 56.4805C123.822 56.9258 123.904 57.2539 124.068 57.4648C124.24 57.668 124.541 57.7695 124.971 57.7695C125.291 57.7695 125.596 57.7148 125.885 57.6055C126.182 57.4883 126.439 57.332 126.658 57.1367C126.877 56.9336 127.053 56.6914 127.186 56.4102C127.318 56.1289 127.385 55.8164 127.385 55.4727C127.385 55.332 127.389 55.1367 127.396 54.8867C127.404 54.6289 127.389 54.375 127.35 54.125C127.311 53.875 127.236 53.6602 127.127 53.4805C127.018 53.293 126.854 53.1992 126.635 53.1992C126.229 53.1992 125.854 53.3047 125.51 53.5156C125.166 53.7188 124.869 53.9805 124.619 54.3008C124.369 54.6211 124.174 54.9766 124.033 55.3672C123.893 55.75 123.822 56.1211 123.822 56.4805ZM129.904 52.9414C129.904 52.8711 129.904 52.8008 129.904 52.7305C129.912 52.6523 129.928 52.582 129.951 52.5195C129.982 52.4492 130.021 52.3984 130.068 52.3672C130.123 52.3281 130.201 52.3086 130.303 52.3086C130.311 52.3086 130.318 52.3086 130.326 52.3086C130.342 52.3086 130.357 52.3086 130.373 52.3086C130.396 52.3164 130.416 52.3203 130.432 52.3203C130.58 52.5234 130.709 52.7852 130.818 53.1055C130.928 53.418 131.033 53.7539 131.135 54.1133C131.236 54.4648 131.346 54.8242 131.463 55.1914C131.58 55.5508 131.732 55.875 131.92 56.1641C132.107 56.4531 132.338 56.6836 132.611 56.8555C132.885 57.0273 133.225 57.1016 133.631 57.0781C133.811 57.0781 133.928 56.9805 133.982 56.7852C134.037 56.5898 134.064 56.3398 134.064 56.0352C134.072 55.7305 134.064 55.3945 134.041 55.0273C134.025 54.6602 134.025 54.3125 134.041 53.9844C134.064 53.6484 134.123 53.3555 134.217 53.1055C134.318 52.8555 134.49 52.6875 134.732 52.6016C134.834 52.8047 134.916 53.125 134.979 53.5625C135.049 53.9922 135.1 54.4922 135.131 55.0625C135.162 55.625 135.178 56.2383 135.178 56.9023C135.178 57.5586 135.162 58.2148 135.131 58.8711C135.1 59.5195 135.053 60.1445 134.99 60.7461C134.928 61.3477 134.857 61.875 134.779 62.3281C134.701 62.7812 134.607 63.1367 134.498 63.3945C134.396 63.6602 134.287 63.7734 134.17 63.7344C134.006 63.5781 133.877 63.375 133.783 63.125C133.697 62.875 133.635 62.5977 133.596 62.293C133.564 61.9883 133.553 61.6641 133.561 61.3203C133.568 60.9844 133.58 60.6445 133.596 60.3008C133.619 59.957 133.643 59.6211 133.666 59.293C133.697 58.9648 133.713 58.6641 133.713 58.3906C133.432 58.4141 133.143 58.3711 132.846 58.2617C132.557 58.1523 132.271 57.9844 131.99 57.7578C131.709 57.5234 131.439 57.2422 131.182 56.9141C130.932 56.5859 130.709 56.2148 130.514 55.8008C130.326 55.3867 130.178 54.9414 130.068 54.4648C129.959 53.9805 129.904 53.4727 129.904 52.9414ZM135.623 57.6172C135.623 57.1641 135.736 56.7617 135.963 56.4102C136.189 56.0586 136.471 55.7539 136.807 55.4961C137.143 55.2305 137.506 55.0078 137.896 54.8281C138.287 54.6406 138.65 54.4883 138.986 54.3711C139.322 54.2461 139.604 54.1484 139.83 54.0781C140.057 54 140.17 53.9375 140.17 53.8906C140.17 53.6172 140.154 53.3516 140.123 53.0938C140.1 52.8281 140.072 52.5625 140.041 52.2969C140.01 52.0312 139.979 51.7695 139.947 51.5117C139.924 51.2461 139.912 50.9844 139.912 50.7266V49.9648C140.232 49.8477 140.459 49.8594 140.592 50C140.732 50.1406 140.756 50.3828 140.662 50.7266C140.693 50.8984 140.736 51.168 140.791 51.5352C140.846 51.9023 140.904 52.3164 140.967 52.7773C141.037 53.2383 141.107 53.7227 141.178 54.2305C141.256 54.7383 141.326 55.2266 141.389 55.6953C141.459 56.1562 141.518 56.5703 141.564 56.9375C141.611 57.2969 141.646 57.5664 141.67 57.7461C141.678 57.7852 141.686 57.8633 141.693 57.9805C141.701 58.0898 141.705 58.2109 141.705 58.3438C141.713 58.4688 141.717 58.5859 141.717 58.6953C141.725 58.8047 141.729 58.8828 141.729 58.9297C141.432 58.9297 141.229 58.918 141.119 58.8945C141.018 58.8711 140.951 58.8242 140.92 58.7539C140.896 58.6836 140.885 58.582 140.885 58.4492C140.885 58.3164 140.846 58.1328 140.768 57.8984C140.479 58.125 140.205 58.3125 139.947 58.4609C139.689 58.6094 139.432 58.7305 139.174 58.8242C138.916 58.9102 138.654 58.9688 138.389 59C138.131 59.0391 137.854 59.0586 137.557 59.0586C137.307 59.0586 137.064 59.0391 136.83 59C136.604 58.9531 136.4 58.875 136.221 58.7656C136.041 58.6562 135.896 58.5078 135.787 58.3203C135.678 58.1328 135.623 57.8984 135.623 57.6172ZM136.643 57.3711C136.643 57.4961 136.67 57.5977 136.725 57.6758C136.779 57.7539 136.85 57.8203 136.936 57.875C137.021 57.9297 137.111 57.9688 137.205 57.9922C137.307 58.0078 137.404 58.0156 137.498 58.0156C137.771 58.0156 138.064 57.9648 138.377 57.8633C138.697 57.7539 138.99 57.6055 139.256 57.418C139.529 57.2227 139.752 56.9922 139.924 56.7266C140.104 56.4609 140.193 56.1719 140.193 55.8594C140.193 55.6172 140.15 55.4492 140.064 55.3555C139.979 55.2617 139.814 55.2148 139.572 55.2148C139.322 55.2148 139.029 55.2734 138.693 55.3906C138.365 55.5078 138.045 55.6641 137.732 55.8594C137.428 56.0547 137.17 56.2852 136.959 56.5508C136.748 56.8086 136.643 57.082 136.643 57.3711ZM142.912 54.6055C142.912 54.5586 142.912 54.4844 142.912 54.3828C142.92 54.2734 142.924 54.1602 142.924 54.043C142.932 53.9258 142.936 53.8125 142.936 53.7031C142.943 53.5938 142.947 53.5156 142.947 53.4688C143.033 53.3438 143.143 53.2422 143.275 53.1641C143.416 53.0859 143.557 53.0234 143.697 52.9766C143.721 53.3984 143.787 53.8477 143.896 54.3242C144.006 54.8008 144.123 55.2812 144.248 55.7656C144.373 56.2422 144.482 56.7148 144.576 57.1836C144.678 57.6523 144.729 58.0898 144.729 58.4961C144.729 58.8477 144.549 59.0234 144.189 59.0234C143.971 59.0234 143.787 58.9336 143.639 58.7539C143.49 58.5742 143.369 58.3477 143.275 58.0742C143.189 57.793 143.119 57.4844 143.064 57.1484C143.01 56.8047 142.971 56.4688 142.947 56.1406C142.932 55.8125 142.92 55.5117 142.912 55.2383C142.912 54.9648 142.912 54.7539 142.912 54.6055ZM143.076 50.2109C143.225 50.2734 143.35 50.375 143.451 50.5156C143.553 50.6562 143.596 50.7852 143.58 50.9023C143.572 51.0117 143.486 51.0898 143.322 51.1367C143.158 51.1758 142.885 51.1289 142.502 50.9961C142.502 50.7852 142.541 50.6016 142.619 50.4453C142.705 50.2891 142.857 50.2109 143.076 50.2109ZM145.186 55.0508C145.186 54.8477 145.236 54.7031 145.338 54.6172C145.439 54.5234 145.604 54.4766 145.83 54.4766H145.947C145.971 54.6016 145.998 54.7461 146.029 54.9102C146.061 55.0742 146.107 55.2422 146.17 55.4141C146.232 55.5859 146.307 55.7461 146.393 55.8945C146.479 56.0352 146.584 56.1484 146.709 56.2344C146.717 55.9609 146.783 55.6992 146.908 55.4492C147.041 55.1914 147.201 54.9648 147.389 54.7695C147.584 54.5664 147.795 54.3984 148.021 54.2656C148.256 54.125 148.486 54.0312 148.713 53.9844H148.971C149.346 53.9844 149.666 54.0703 149.932 54.2422C150.197 54.4062 150.416 54.625 150.588 54.8984C150.768 55.1641 150.904 55.4688 150.998 55.8125C151.092 56.1562 151.162 56.5078 151.209 56.8672C151.264 57.2188 151.295 57.5625 151.303 57.8984C151.318 58.2266 151.326 58.5078 151.326 58.7422H150.471C150.424 58.2734 150.365 57.8242 150.295 57.3945C150.271 57.2227 150.24 57.043 150.201 56.8555C150.162 56.6602 150.119 56.4805 150.072 56.3164C150.025 56.1445 149.975 55.9883 149.92 55.8477C149.865 55.6992 149.803 55.5742 149.732 55.4727C149.701 55.4414 149.658 55.3984 149.604 55.3438C149.557 55.2891 149.506 55.2344 149.451 55.1797C149.396 55.125 149.346 55.0781 149.299 55.0391C149.252 55 149.225 54.9805 149.217 54.9805C148.982 54.918 148.779 54.9648 148.607 55.1211C148.436 55.2695 148.283 55.4727 148.15 55.7305C148.018 55.9883 147.908 56.2812 147.822 56.6094C147.744 56.9375 147.678 57.2539 147.623 57.5586C147.568 57.8555 147.529 58.1172 147.506 58.3438C147.482 58.5625 147.467 58.6953 147.459 58.7422C147.264 58.8828 147.08 58.9258 146.908 58.8711C146.736 58.8086 146.572 58.6836 146.416 58.4961C146.268 58.3086 146.131 58.0742 146.006 57.793C145.889 57.5117 145.779 57.2148 145.678 56.9023C145.576 56.582 145.482 56.2617 145.396 55.9414C145.318 55.6211 145.248 55.3242 145.186 55.0508Z" fill="#C6C6C6"/>
</svg>
